<?xml version="1.0" encoding="UTF-8" standalone="no"?>
<!DOCTYPE svg PUBLIC "-//W3C//DTD SVG 1.1//EN"
 "http://www.w3.org/Graphics/SVG/1.1/DTD/svg11.dtd">
<!-- Generated by graphviz version 2.44.0 (0)
 -->
<!-- Title: snakemake_dag Pages: 1 -->
<svg width="2965pt" height="692pt"
 viewBox="0.00 0.00 2965.41 692.00" xmlns="http://www.w3.org/2000/svg" xmlns:xlink="http://www.w3.org/1999/xlink">
<g id="graph0" class="graph" transform="scale(1 1) rotate(0) translate(4 688)">
<title>snakemake_dag</title>
<polygon fill="white" stroke="transparent" points="-4,4 -4,-688 2961.41,-688 2961.41,4 -4,4"/>
<!-- 0 -->
<g id="node1" class="node">
<title>0</title>
<path fill="none" stroke="#d86656" stroke-width="2" d="M1101.41,-36C1101.41,-36 1071.41,-36 1071.41,-36 1065.41,-36 1059.41,-30 1059.41,-24 1059.41,-24 1059.41,-12 1059.41,-12 1059.41,-6 1065.41,0 1071.41,0 1071.41,0 1101.41,0 1101.41,0 1107.41,0 1113.41,-6 1113.41,-12 1113.41,-12 1113.41,-24 1113.41,-24 1113.41,-30 1107.41,-36 1101.41,-36"/>
<text text-anchor="middle" x="1086.41" y="-15.5" font-family="sans" font-size="10.00">all</text>
</g>
<!-- 1 -->
<g id="node2" class="node">
<title>1</title>
<path fill="none" stroke="#56d88a" stroke-width="2" d="M42.41,-180C42.41,-180 12.41,-180 12.41,-180 6.41,-180 0.41,-174 0.41,-168 0.41,-168 0.41,-156 0.41,-156 0.41,-150 6.41,-144 12.41,-144 12.41,-144 42.41,-144 42.41,-144 48.41,-144 54.41,-150 54.41,-156 54.41,-156 54.41,-168 54.41,-168 54.41,-174 48.41,-180 42.41,-180"/>
<text text-anchor="middle" x="27.41" y="-159.5" font-family="sans" font-size="10.00">fastqc</text>
</g>
<!-- 1&#45;&gt;0 -->
<g id="edge9" class="edge">
<title>1&#45;&gt;0</title>
<path fill="none" stroke="grey" stroke-width="2" d="M16.22,-143.84C4.77,-123.9 -8.96,-91.3 9.41,-72 46.01,-33.55 863.42,-21.63 1049.12,-19.41"/>
<polygon fill="grey" stroke="grey" stroke-width="2" points="1049.25,-22.91 1059.21,-19.29 1049.17,-15.91 1049.25,-22.91"/>
</g>
<!-- 36 -->
<g id="node37" class="node">
<title>36</title>
<path fill="none" stroke="#56d8b1" stroke-width="2" d="M95.91,-108C95.91,-108 30.91,-108 30.91,-108 24.91,-108 18.91,-102 18.91,-96 18.91,-96 18.91,-84 18.91,-84 18.91,-78 24.91,-72 30.91,-72 30.91,-72 95.91,-72 95.91,-72 101.91,-72 107.91,-78 107.91,-84 107.91,-84 107.91,-96 107.91,-96 107.91,-102 101.91,-108 95.91,-108"/>
<text text-anchor="middle" x="63.41" y="-87.5" font-family="sans" font-size="10.00">multiqc_fastqc</text>
</g>
<!-- 1&#45;&gt;36 -->
<g id="edge74" class="edge">
<title>1&#45;&gt;36</title>
<path fill="none" stroke="grey" stroke-width="2" d="M36.31,-143.7C40.41,-135.73 45.36,-126.1 49.91,-117.26"/>
<polygon fill="grey" stroke="grey" stroke-width="2" points="53.16,-118.6 54.62,-108.1 46.93,-115.4 53.16,-118.6"/>
</g>
<!-- 2 -->
<g id="node3" class="node">
<title>2</title>
<path fill="none" stroke="#56d87b" stroke-width="2" d="M1051.41,-684C1051.41,-684 1021.41,-684 1021.41,-684 1015.41,-684 1009.41,-678 1009.41,-672 1009.41,-672 1009.41,-660 1009.41,-660 1009.41,-654 1015.41,-648 1021.41,-648 1021.41,-648 1051.41,-648 1051.41,-648 1057.41,-648 1063.41,-654 1063.41,-660 1063.41,-660 1063.41,-672 1063.41,-672 1063.41,-678 1057.41,-684 1051.41,-684"/>
<text text-anchor="middle" x="1036.41" y="-663.5" font-family="sans" font-size="10.00">fastp</text>
</g>
<!-- 2&#45;&gt;0 -->
<g id="edge25" class="edge">
<title>2&#45;&gt;0</title>
<path fill="none" stroke="grey" stroke-width="2" d="M1008.99,-663.64C858.15,-655.82 136.41,-613.66 136.41,-523 136.41,-523 136.41,-523 136.41,-161 136.41,-114.03 152.89,-95.76 193.41,-72 267.99,-28.28 888.24,-20.52 1048.66,-19.24"/>
<polygon fill="grey" stroke="grey" stroke-width="2" points="1049,-22.74 1058.98,-19.16 1048.95,-15.74 1049,-22.74"/>
</g>
<!-- 3 -->
<g id="node4" class="node">
<title>3</title>
<path fill="none" stroke="#d88d56" stroke-width="2" d="M2082.91,-612C2082.91,-612 2021.91,-612 2021.91,-612 2015.91,-612 2009.91,-606 2009.91,-600 2009.91,-600 2009.91,-588 2009.91,-588 2009.91,-582 2015.91,-576 2021.91,-576 2021.91,-576 2082.91,-576 2082.91,-576 2088.91,-576 2094.91,-582 2094.91,-588 2094.91,-588 2094.91,-600 2094.91,-600 2094.91,-606 2088.91,-612 2082.91,-612"/>
<text text-anchor="middle" x="2052.41" y="-591.5" font-family="sans" font-size="10.00">bowtie2_align</text>
</g>
<!-- 2&#45;&gt;3 -->
<g id="edge34" class="edge">
<title>2&#45;&gt;3</title>
<path fill="none" stroke="grey" stroke-width="2" d="M1063.59,-663.13C1200.48,-653.7 1815.24,-611.34 1999.84,-598.62"/>
<polygon fill="grey" stroke="grey" stroke-width="2" points="2000.1,-602.11 2009.84,-597.93 1999.62,-595.13 2000.1,-602.11"/>
</g>
<!-- 3&#45;&gt;0 -->
<g id="edge33" class="edge">
<title>3&#45;&gt;0</title>
<path fill="none" stroke="grey" stroke-width="2" d="M2095.15,-590.87C2274.54,-581.37 2957.41,-539.42 2957.41,-451 2957.41,-451 2957.41,-451 2957.41,-161 2957.41,-102.49 2914.61,-94.04 2860.41,-72 2777.18,-38.16 1372.53,-21.98 1123.88,-19.38"/>
<polygon fill="grey" stroke="grey" stroke-width="2" points="1123.6,-15.88 1113.56,-19.27 1123.53,-22.88 1123.6,-15.88"/>
</g>
<!-- 5 -->
<g id="node6" class="node">
<title>5</title>
<path fill="none" stroke="#568ad8" stroke-width="2" d="M1621.41,-540C1621.41,-540 1499.41,-540 1499.41,-540 1493.41,-540 1487.41,-534 1487.41,-528 1487.41,-528 1487.41,-516 1487.41,-516 1487.41,-510 1493.41,-504 1499.41,-504 1499.41,-504 1621.41,-504 1621.41,-504 1627.41,-504 1633.41,-510 1633.41,-516 1633.41,-516 1633.41,-528 1633.41,-528 1633.41,-534 1627.41,-540 1621.41,-540"/>
<text text-anchor="middle" x="1560.41" y="-519.5" font-family="sans" font-size="10.00">samtools_sort_filter_index</text>
</g>
<!-- 3&#45;&gt;5 -->
<g id="edge36" class="edge">
<title>3&#45;&gt;5</title>
<path fill="none" stroke="grey" stroke-width="2" d="M2009.61,-586.91C1928.08,-575.31 1749.2,-549.86 1643.43,-534.81"/>
<polygon fill="grey" stroke="grey" stroke-width="2" points="1643.82,-531.33 1633.42,-533.39 1642.83,-538.26 1643.82,-531.33"/>
</g>
<!-- 10 -->
<g id="node11" class="node">
<title>10</title>
<path fill="none" stroke="#567bd8" stroke-width="2" d="M2753.91,-252C2753.91,-252 2654.91,-252 2654.91,-252 2648.91,-252 2642.91,-246 2642.91,-240 2642.91,-240 2642.91,-228 2642.91,-228 2642.91,-222 2648.91,-216 2654.91,-216 2654.91,-216 2753.91,-216 2753.91,-216 2759.91,-216 2765.91,-222 2765.91,-228 2765.91,-228 2765.91,-240 2765.91,-240 2765.91,-246 2759.91,-252 2753.91,-252"/>
<text text-anchor="middle" x="2704.41" y="-231.5" font-family="sans" font-size="10.00">spikein_extract_count</text>
</g>
<!-- 3&#45;&gt;10 -->
<g id="edge42" class="edge">
<title>3&#45;&gt;10</title>
<path fill="none" stroke="grey" stroke-width="2" d="M2095.09,-586.56C2195.33,-570.23 2437.41,-523.31 2437.41,-451 2437.41,-451 2437.41,-451 2437.41,-377 2437.41,-288.26 2553.8,-254.8 2632.89,-242.31"/>
<polygon fill="grey" stroke="grey" stroke-width="2" points="2633.45,-245.76 2642.82,-240.82 2632.41,-238.84 2633.45,-245.76"/>
</g>
<!-- 37 -->
<g id="node38" class="node">
<title>37</title>
<path fill="none" stroke="#56c9d8" stroke-width="2" d="M1744.41,-108C1744.41,-108 1706.41,-108 1706.41,-108 1700.41,-108 1694.41,-102 1694.41,-96 1694.41,-96 1694.41,-84 1694.41,-84 1694.41,-78 1700.41,-72 1706.41,-72 1706.41,-72 1744.41,-72 1744.41,-72 1750.41,-72 1756.41,-78 1756.41,-84 1756.41,-84 1756.41,-96 1756.41,-96 1756.41,-102 1750.41,-108 1744.41,-108"/>
<text text-anchor="middle" x="1725.41" y="-87.5" font-family="sans" font-size="10.00">qc_report</text>
</g>
<!-- 3&#45;&gt;37 -->
<g id="edge93" class="edge">
<title>3&#45;&gt;37</title>
<path fill="none" stroke="grey" stroke-width="2" d="M2052.41,-575.95C2052.41,-549.29 2052.41,-496.11 2052.41,-451 2052.41,-451 2052.41,-451 2052.41,-305 2052.41,-195.24 1936.74,-230.75 1839.41,-180 1805.9,-162.53 1772.39,-134.83 1750.46,-114.98"/>
<polygon fill="grey" stroke="grey" stroke-width="2" points="1752.66,-112.24 1742.93,-108.05 1747.92,-117.4 1752.66,-112.24"/>
</g>
<!-- 4 -->
<g id="node5" class="node">
<title>4</title>
<path fill="none" stroke="#d89556" stroke-width="2" d="M2109.91,-684C2109.91,-684 1994.91,-684 1994.91,-684 1988.91,-684 1982.91,-678 1982.91,-672 1982.91,-672 1982.91,-660 1982.91,-660 1982.91,-654 1988.91,-648 1994.91,-648 1994.91,-648 2109.91,-648 2109.91,-648 2115.91,-648 2121.91,-654 2121.91,-660 2121.91,-660 2121.91,-672 2121.91,-672 2121.91,-678 2115.91,-684 2109.91,-684"/>
<text text-anchor="middle" x="2052.41" y="-663.5" font-family="sans" font-size="10.00">build_combined_genome</text>
</g>
<!-- 4&#45;&gt;3 -->
<g id="edge35" class="edge">
<title>4&#45;&gt;3</title>
<path fill="none" stroke="grey" stroke-width="2" d="M2052.41,-647.7C2052.41,-639.98 2052.41,-630.71 2052.41,-622.11"/>
<polygon fill="grey" stroke="grey" stroke-width="2" points="2055.91,-622.1 2052.41,-612.1 2048.91,-622.1 2055.91,-622.1"/>
</g>
<!-- 5&#45;&gt;0 -->
<g id="edge12" class="edge">
<title>5&#45;&gt;0</title>
<path fill="none" stroke="grey" stroke-width="2" d="M1487.3,-520.72C1232.46,-519.35 392.78,-511.57 280.41,-468 223.06,-445.76 174.41,-440.52 174.41,-379 174.41,-379 174.41,-379 174.41,-161 174.41,-104.74 213.1,-95.05 264.41,-72 336.55,-39.6 897.69,-23.62 1048.96,-19.88"/>
<polygon fill="grey" stroke="grey" stroke-width="2" points="1049.21,-23.37 1059.13,-19.63 1049.04,-16.37 1049.21,-23.37"/>
</g>
<!-- 6 -->
<g id="node7" class="node">
<title>6</title>
<path fill="none" stroke="#56a2d8" stroke-width="2" d="M1603.41,-468C1603.41,-468 1517.41,-468 1517.41,-468 1511.41,-468 1505.41,-462 1505.41,-456 1505.41,-456 1505.41,-444 1505.41,-444 1505.41,-438 1511.41,-432 1517.41,-432 1517.41,-432 1603.41,-432 1603.41,-432 1609.41,-432 1615.41,-438 1615.41,-444 1615.41,-444 1615.41,-456 1615.41,-456 1615.41,-462 1609.41,-468 1603.41,-468"/>
<text text-anchor="middle" x="1560.41" y="-447.5" font-family="sans" font-size="10.00">remove_duplicates</text>
</g>
<!-- 5&#45;&gt;6 -->
<g id="edge37" class="edge">
<title>5&#45;&gt;6</title>
<path fill="none" stroke="grey" stroke-width="2" d="M1560.41,-503.7C1560.41,-495.98 1560.41,-486.71 1560.41,-478.11"/>
<polygon fill="grey" stroke="grey" stroke-width="2" points="1563.91,-478.1 1560.41,-468.1 1556.91,-478.1 1563.91,-478.1"/>
</g>
<!-- 32 -->
<g id="node33" class="node">
<title>32</title>
<path fill="none" stroke="#d8a456" stroke-width="2" d="M658.41,-180C658.41,-180 524.41,-180 524.41,-180 518.41,-180 512.41,-174 512.41,-168 512.41,-168 512.41,-156 512.41,-156 512.41,-150 518.41,-144 524.41,-144 524.41,-144 658.41,-144 658.41,-144 664.41,-144 670.41,-150 670.41,-156 670.41,-156 670.41,-168 670.41,-168 670.41,-174 664.41,-180 658.41,-180"/>
<text text-anchor="middle" x="591.41" y="-159.5" font-family="sans" font-size="10.00">calculate_library_complexity</text>
</g>
<!-- 5&#45;&gt;32 -->
<g id="edge68" class="edge">
<title>5&#45;&gt;32</title>
<path fill="none" stroke="grey" stroke-width="2" d="M1486.98,-521.04C1205.68,-520.25 212.41,-508.28 212.41,-379 212.41,-379 212.41,-379 212.41,-305 212.41,-243.44 389.95,-199.63 502,-178.11"/>
<polygon fill="grey" stroke="grey" stroke-width="2" points="502.79,-181.52 511.96,-176.22 501.49,-174.64 502.79,-181.52"/>
</g>
<!-- 5&#45;&gt;37 -->
<g id="edge81" class="edge">
<title>5&#45;&gt;37</title>
<path fill="none" stroke="grey" stroke-width="2" d="M1633.82,-511.96C1735.36,-495.08 1915.21,-448.37 1995.41,-324 2066.49,-213.79 1916.57,-340.75 1801.41,-252 1789.94,-243.16 1754.54,-160.99 1736.39,-117.58"/>
<polygon fill="grey" stroke="grey" stroke-width="2" points="1739.56,-116.08 1732.48,-108.2 1733.09,-118.77 1739.56,-116.08"/>
</g>
<!-- 6&#45;&gt;0 -->
<g id="edge23" class="edge">
<title>6&#45;&gt;0</title>
<path fill="none" stroke="grey" stroke-width="2" d="M1505.38,-448.91C1256.74,-447.79 250.41,-435.32 250.41,-307 250.41,-307 250.41,-307 250.41,-161 250.41,-110.95 275.26,-95.56 319.41,-72 384.18,-37.44 904.05,-23.14 1049.01,-19.8"/>
<polygon fill="grey" stroke="grey" stroke-width="2" points="1049.25,-23.29 1059.17,-19.57 1049.1,-16.3 1049.25,-23.29"/>
</g>
<!-- 7 -->
<g id="node8" class="node">
<title>7</title>
<path fill="none" stroke="#56d89a" stroke-width="2" d="M1446.41,-396C1446.41,-396 1384.41,-396 1384.41,-396 1378.41,-396 1372.41,-390 1372.41,-384 1372.41,-384 1372.41,-372 1372.41,-372 1372.41,-366 1378.41,-360 1384.41,-360 1384.41,-360 1446.41,-360 1446.41,-360 1452.41,-360 1458.41,-366 1458.41,-372 1458.41,-372 1458.41,-384 1458.41,-384 1458.41,-390 1452.41,-396 1446.41,-396"/>
<text text-anchor="middle" x="1415.41" y="-375.5" font-family="sans" font-size="10.00">filter_blacklist</text>
</g>
<!-- 6&#45;&gt;7 -->
<g id="edge38" class="edge">
<title>6&#45;&gt;7</title>
<path fill="none" stroke="grey" stroke-width="2" d="M1524.94,-431.88C1505.3,-422.39 1480.69,-410.51 1459.78,-400.42"/>
<polygon fill="grey" stroke="grey" stroke-width="2" points="1461.3,-397.26 1450.77,-396.07 1458.25,-403.57 1461.3,-397.26"/>
</g>
<!-- 9 -->
<g id="node10" class="node">
<title>9</title>
<path fill="none" stroke="#d87d56" stroke-width="2" d="M1973.91,-324C1973.91,-324 1910.91,-324 1910.91,-324 1904.91,-324 1898.91,-318 1898.91,-312 1898.91,-312 1898.91,-300 1898.91,-300 1898.91,-294 1904.91,-288 1910.91,-288 1910.91,-288 1973.91,-288 1973.91,-288 1979.91,-288 1985.91,-294 1985.91,-300 1985.91,-300 1985.91,-312 1985.91,-312 1985.91,-318 1979.91,-324 1973.91,-324"/>
<text text-anchor="middle" x="1942.41" y="-303.5" font-family="sans" font-size="10.00">blacklist_stats</text>
</g>
<!-- 6&#45;&gt;9 -->
<g id="edge41" class="edge">
<title>6&#45;&gt;9</title>
<path fill="none" stroke="grey" stroke-width="2" d="M1614.76,-431.91C1645.86,-421.91 1685.51,-408.76 1720.41,-396 1780,-374.21 1847.54,-346.73 1892.31,-328.11"/>
<polygon fill="grey" stroke="grey" stroke-width="2" points="1893.9,-331.24 1901.79,-324.16 1891.21,-324.78 1893.9,-331.24"/>
</g>
<!-- 6&#45;&gt;37 -->
<g id="edge87" class="edge">
<title>6&#45;&gt;37</title>
<path fill="none" stroke="grey" stroke-width="2" d="M1599.16,-431.85C1642.41,-409.75 1706.41,-366.93 1706.41,-307 1706.41,-307 1706.41,-307 1706.41,-233 1706.41,-192.86 1713.96,-146.9 1719.55,-118.4"/>
<polygon fill="grey" stroke="grey" stroke-width="2" points="1723.02,-118.88 1721.57,-108.39 1716.16,-117.5 1723.02,-118.88"/>
</g>
<!-- 7&#45;&gt;0 -->
<g id="edge32" class="edge">
<title>7&#45;&gt;0</title>
<path fill="none" stroke="grey" stroke-width="2" d="M1372.2,-377.41C1264.12,-377.66 985.29,-373.39 909.41,-324 816.64,-263.61 813.93,-214.96 785.41,-108 781.29,-92.54 775.13,-84.26 785.41,-72 818.66,-32.39 975.77,-22.37 1048.86,-19.85"/>
<polygon fill="grey" stroke="grey" stroke-width="2" points="1049.12,-23.34 1059,-19.53 1048.9,-16.34 1049.12,-23.34"/>
</g>
<!-- 8 -->
<g id="node9" class="node">
<title>8</title>
<path fill="none" stroke="#d8b456" stroke-width="2" d="M701.41,-324C701.41,-324 657.41,-324 657.41,-324 651.41,-324 645.41,-318 645.41,-312 645.41,-312 645.41,-300 645.41,-300 645.41,-294 651.41,-288 657.41,-288 657.41,-288 701.41,-288 701.41,-288 707.41,-288 713.41,-294 713.41,-300 713.41,-300 713.41,-312 713.41,-312 713.41,-318 707.41,-324 701.41,-324"/>
<text text-anchor="middle" x="679.41" y="-303.5" font-family="sans" font-size="10.00">call_peaks</text>
</g>
<!-- 7&#45;&gt;8 -->
<g id="edge39" class="edge">
<title>7&#45;&gt;8</title>
<path fill="none" stroke="grey" stroke-width="2" d="M1372.08,-376.42C1264.53,-374.38 976.99,-365.18 741.41,-324 735.57,-322.98 729.47,-321.65 723.49,-320.18"/>
<polygon fill="grey" stroke="grey" stroke-width="2" points="724.14,-316.73 713.59,-317.61 722.39,-323.51 724.14,-316.73"/>
</g>
<!-- 7&#45;&gt;9 -->
<g id="edge40" class="edge">
<title>7&#45;&gt;9</title>
<path fill="none" stroke="grey" stroke-width="2" d="M1458.48,-374.63C1541.54,-369.5 1729.38,-355.24 1884.41,-324 1885.89,-323.7 1887.39,-323.38 1888.89,-323.05"/>
<polygon fill="grey" stroke="grey" stroke-width="2" points="1890.01,-326.38 1898.91,-320.63 1888.37,-319.58 1890.01,-326.38"/>
</g>
<!-- 12 -->
<g id="node13" class="node">
<title>12</title>
<path fill="none" stroke="#ced856" stroke-width="2" d="M1170.91,-324C1170.91,-324 1109.91,-324 1109.91,-324 1103.91,-324 1097.91,-318 1097.91,-312 1097.91,-312 1097.91,-300 1097.91,-300 1097.91,-294 1103.91,-288 1109.91,-288 1109.91,-288 1170.91,-288 1170.91,-288 1176.91,-288 1182.91,-294 1182.91,-300 1182.91,-300 1182.91,-312 1182.91,-312 1182.91,-318 1176.91,-324 1170.91,-324"/>
<text text-anchor="middle" x="1140.41" y="-303.5" font-family="sans" font-size="10.00">create_bigwig</text>
</g>
<!-- 7&#45;&gt;12 -->
<g id="edge44" class="edge">
<title>7&#45;&gt;12</title>
<path fill="none" stroke="grey" stroke-width="2" d="M1372.14,-365.99C1323.54,-353.62 1244.69,-333.54 1192.68,-320.31"/>
<polygon fill="grey" stroke="grey" stroke-width="2" points="1193.53,-316.91 1182.98,-317.84 1191.81,-323.69 1193.53,-316.91"/>
</g>
<!-- 13 -->
<g id="node14" class="node">
<title>13</title>
<path fill="none" stroke="#bed856" stroke-width="2" d="M2737.91,-108C2737.91,-108 2636.91,-108 2636.91,-108 2630.91,-108 2624.91,-102 2624.91,-96 2624.91,-96 2624.91,-84 2624.91,-84 2624.91,-78 2630.91,-72 2636.91,-72 2636.91,-72 2737.91,-72 2737.91,-72 2743.91,-72 2749.91,-78 2749.91,-84 2749.91,-84 2749.91,-96 2749.91,-96 2749.91,-102 2743.91,-108 2737.91,-108"/>
<text text-anchor="middle" x="2687.41" y="-87.5" font-family="sans" font-size="10.00">create_spikein_bigwig</text>
</g>
<!-- 7&#45;&gt;13 -->
<g id="edge46" class="edge">
<title>7&#45;&gt;13</title>
<path fill="none" stroke="grey" stroke-width="2" d="M1458.53,-377.84C1536.2,-378.01 1703.68,-372.12 1834.41,-324 1861.83,-313.91 1861.9,-297.83 1889.41,-288 2054,-229.22 2541.85,-300.52 2668.41,-180 2684.9,-164.3 2688.85,-138.07 2689.15,-118.15"/>
<polygon fill="grey" stroke="grey" stroke-width="2" points="2692.65,-118.06 2689.01,-108.11 2685.65,-118.16 2692.65,-118.06"/>
</g>
<!-- 16 -->
<g id="node17" class="node">
<title>16</title>
<path fill="none" stroke="#56b1d8" stroke-width="2" d="M545.91,-324C545.91,-324 482.91,-324 482.91,-324 476.91,-324 470.91,-318 470.91,-312 470.91,-312 470.91,-300 470.91,-300 470.91,-294 476.91,-288 482.91,-288 482.91,-288 545.91,-288 545.91,-288 551.91,-288 557.91,-294 557.91,-300 557.91,-300 557.91,-312 557.91,-312 557.91,-318 551.91,-324 545.91,-324"/>
<text text-anchor="middle" x="514.41" y="-303.5" font-family="sans" font-size="10.00">relaxed_peaks</text>
</g>
<!-- 7&#45;&gt;16 -->
<g id="edge50" class="edge">
<title>7&#45;&gt;16</title>
<path fill="none" stroke="grey" stroke-width="2" d="M1372.25,-375.13C1254.22,-369.8 916.19,-352.97 636.41,-324 614.02,-321.68 589.41,-318.39 568.2,-315.33"/>
<polygon fill="grey" stroke="grey" stroke-width="2" points="568.49,-311.83 558.08,-313.85 567.47,-318.76 568.49,-311.83"/>
</g>
<!-- 17 -->
<g id="node18" class="node">
<title>17</title>
<path fill="none" stroke="#d6d856" stroke-width="2" d="M497.91,-108C497.91,-108 366.91,-108 366.91,-108 360.91,-108 354.91,-102 354.91,-96 354.91,-96 354.91,-84 354.91,-84 354.91,-78 360.91,-72 366.91,-72 366.91,-72 497.91,-72 497.91,-72 503.91,-72 509.91,-78 509.91,-84 509.91,-84 509.91,-96 509.91,-96 509.91,-102 503.91,-108 497.91,-108"/>
<text text-anchor="middle" x="432.41" y="-87.5" font-family="sans" font-size="10.00">count_fragments_consensus</text>
</g>
<!-- 7&#45;&gt;17 -->
<g id="edge52" class="edge">
<title>7&#45;&gt;17</title>
<path fill="none" stroke="grey" stroke-width="2" d="M1372.38,-376.39C1197.51,-373.69 545.35,-361.18 461.41,-324 386.27,-290.71 367.27,-259.22 345.41,-180 341.16,-164.58 337.58,-157.95 345.41,-144 352.66,-131.1 364.47,-120.96 377.08,-113.17"/>
<polygon fill="grey" stroke="grey" stroke-width="2" points="378.94,-116.14 385.89,-108.15 375.47,-110.06 378.94,-116.14"/>
</g>
<!-- 18 -->
<g id="node19" class="node">
<title>18</title>
<path fill="none" stroke="#afd856" stroke-width="2" d="M898.41,-108C898.41,-108 806.41,-108 806.41,-108 800.41,-108 794.41,-102 794.41,-96 794.41,-96 794.41,-84 794.41,-84 794.41,-78 800.41,-72 806.41,-72 806.41,-72 898.41,-72 898.41,-72 904.41,-72 910.41,-78 910.41,-84 910.41,-84 910.41,-96 910.41,-96 910.41,-102 904.41,-108 898.41,-108"/>
<text text-anchor="middle" x="852.41" y="-87.5" font-family="sans" font-size="10.00">deeptools_bedgraph</text>
</g>
<!-- 7&#45;&gt;18 -->
<g id="edge53" class="edge">
<title>7&#45;&gt;18</title>
<path fill="none" stroke="grey" stroke-width="2" d="M1372.23,-375.55C1273.33,-371.67 1033.38,-358.83 961.41,-324 920.68,-304.28 911.33,-291.59 889.41,-252 865.7,-209.17 857.16,-151.87 854.1,-118.45"/>
<polygon fill="grey" stroke="grey" stroke-width="2" points="857.56,-117.76 853.26,-108.08 850.58,-118.33 857.56,-117.76"/>
</g>
<!-- 19 -->
<g id="node20" class="node">
<title>19</title>
<path fill="none" stroke="#70d856" stroke-width="2" d="M1470.41,-180C1470.41,-180 1360.41,-180 1360.41,-180 1354.41,-180 1348.41,-174 1348.41,-168 1348.41,-168 1348.41,-156 1348.41,-156 1348.41,-150 1354.41,-144 1360.41,-144 1360.41,-144 1470.41,-144 1470.41,-144 1476.41,-144 1482.41,-150 1482.41,-156 1482.41,-156 1482.41,-168 1482.41,-168 1482.41,-174 1476.41,-180 1470.41,-180"/>
<text text-anchor="middle" x="1415.41" y="-159.5" font-family="sans" font-size="10.00">deeptools_fragmentsize</text>
</g>
<!-- 7&#45;&gt;19 -->
<g id="edge54" class="edge">
<title>7&#45;&gt;19</title>
<path fill="none" stroke="grey" stroke-width="2" d="M1415.41,-359.85C1415.41,-322.83 1415.41,-235.18 1415.41,-190.39"/>
<polygon fill="grey" stroke="grey" stroke-width="2" points="1418.91,-190.23 1415.41,-180.23 1411.91,-190.23 1418.91,-190.23"/>
</g>
<!-- 20 -->
<g id="node21" class="node">
<title>20</title>
<path fill="none" stroke="#59d856" stroke-width="2" d="M1665.91,-180C1665.91,-180 1550.91,-180 1550.91,-180 1544.91,-180 1538.91,-174 1538.91,-168 1538.91,-168 1538.91,-156 1538.91,-156 1538.91,-150 1544.91,-144 1550.91,-144 1550.91,-144 1665.91,-144 1665.91,-144 1671.91,-144 1677.91,-150 1677.91,-156 1677.91,-156 1677.91,-168 1677.91,-168 1677.91,-174 1671.91,-180 1665.91,-180"/>
<text text-anchor="middle" x="1608.41" y="-159.5" font-family="sans" font-size="10.00">deeptools_plotfingerprint</text>
</g>
<!-- 7&#45;&gt;20 -->
<g id="edge55" class="edge">
<title>7&#45;&gt;20</title>
<path fill="none" stroke="grey" stroke-width="2" d="M1430.88,-359.85C1464.9,-322.13 1546.34,-231.83 1585.98,-187.88"/>
<polygon fill="grey" stroke="grey" stroke-width="2" points="1588.77,-190 1592.87,-180.23 1583.58,-185.31 1588.77,-190"/>
</g>
<!-- 21 -->
<g id="node22" class="node">
<title>21</title>
<path fill="none" stroke="#97d856" stroke-width="2" d="M1935.91,-252C1935.91,-252 1822.91,-252 1822.91,-252 1816.91,-252 1810.91,-246 1810.91,-240 1810.91,-240 1810.91,-228 1810.91,-228 1810.91,-222 1816.91,-216 1822.91,-216 1822.91,-216 1935.91,-216 1935.91,-216 1941.91,-216 1947.91,-222 1947.91,-228 1947.91,-228 1947.91,-240 1947.91,-240 1947.91,-246 1941.91,-252 1935.91,-252"/>
<text text-anchor="middle" x="1879.41" y="-231.5" font-family="sans" font-size="10.00">deeptools_cor_multibam</text>
</g>
<!-- 7&#45;&gt;21 -->
<g id="edge56" class="edge">
<title>7&#45;&gt;21</title>
<path fill="none" stroke="grey" stroke-width="2" d="M1456.33,-359.98C1503.5,-340.77 1583.64,-309.42 1654.41,-288 1702.52,-273.44 1757.41,-260.44 1800.93,-250.96"/>
<polygon fill="grey" stroke="grey" stroke-width="2" points="1801.85,-254.34 1810.89,-248.81 1800.37,-247.5 1801.85,-254.34"/>
</g>
<!-- 25 -->
<g id="node26" class="node">
<title>25</title>
<path fill="none" stroke="#61d856" stroke-width="2" d="M2421.91,-180C2421.91,-180 2338.91,-180 2338.91,-180 2332.91,-180 2326.91,-174 2326.91,-168 2326.91,-168 2326.91,-156 2326.91,-156 2326.91,-150 2332.91,-144 2338.91,-144 2338.91,-144 2421.91,-144 2421.91,-144 2427.91,-144 2433.91,-150 2433.91,-156 2433.91,-156 2433.91,-168 2433.91,-168 2433.91,-174 2427.91,-180 2421.91,-180"/>
<text text-anchor="middle" x="2380.41" y="-159.5" font-family="sans" font-size="10.00">deeptools_gc_bias</text>
</g>
<!-- 7&#45;&gt;25 -->
<g id="edge60" class="edge">
<title>7&#45;&gt;25</title>
<path fill="none" stroke="grey" stroke-width="2" d="M1458.55,-365.93C1526.73,-348.55 1663.62,-314.17 1780.41,-288 1858.32,-270.54 1884.3,-286.28 1956.41,-252 1979.23,-241.15 1977.16,-225.89 2000.41,-216 2124.38,-163.24 2168.52,-202.2 2301.41,-180 2306.39,-179.17 2311.52,-178.24 2316.68,-177.25"/>
<polygon fill="grey" stroke="grey" stroke-width="2" points="2317.44,-180.66 2326.57,-175.28 2316.08,-173.8 2317.44,-180.66"/>
</g>
<!-- 29 -->
<g id="node30" class="node">
<title>29</title>
<path fill="none" stroke="#d85656" stroke-width="2" d="M749.41,-252C749.41,-252 719.41,-252 719.41,-252 713.41,-252 707.41,-246 707.41,-240 707.41,-240 707.41,-228 707.41,-228 707.41,-222 713.41,-216 719.41,-216 719.41,-216 749.41,-216 749.41,-216 755.41,-216 761.41,-222 761.41,-228 761.41,-228 761.41,-240 761.41,-240 761.41,-246 755.41,-252 749.41,-252"/>
<text text-anchor="middle" x="734.41" y="-231.5" font-family="sans" font-size="10.00">FRiP</text>
</g>
<!-- 7&#45;&gt;29 -->
<g id="edge65" class="edge">
<title>7&#45;&gt;29</title>
<path fill="none" stroke="grey" stroke-width="2" d="M1372.01,-375.45C1239.14,-370.42 843.97,-353.13 794.41,-324 770.56,-309.98 754.19,-282.28 744.65,-261.49"/>
<polygon fill="grey" stroke="grey" stroke-width="2" points="747.82,-260 740.63,-252.21 741.39,-262.78 747.82,-260"/>
</g>
<!-- 31 -->
<g id="node32" class="node">
<title>31</title>
<path fill="none" stroke="#56d8d8" stroke-width="2" d="M1062.41,-324C1062.41,-324 982.41,-324 982.41,-324 976.41,-324 970.41,-318 970.41,-312 970.41,-312 970.41,-300 970.41,-300 970.41,-294 976.41,-288 982.41,-288 982.41,-288 1062.41,-288 1062.41,-288 1068.41,-288 1074.41,-294 1074.41,-300 1074.41,-300 1074.41,-312 1074.41,-312 1074.41,-318 1068.41,-324 1062.41,-324"/>
<text text-anchor="middle" x="1022.41" y="-303.5" font-family="sans" font-size="10.00">qc_relaxed_peaks</text>
</g>
<!-- 7&#45;&gt;31 -->
<g id="edge67" class="edge">
<title>7&#45;&gt;31</title>
<path fill="none" stroke="grey" stroke-width="2" d="M1372.33,-371.3C1309.57,-362.7 1189.46,-345.16 1088.41,-324 1087.14,-323.73 1085.86,-323.46 1084.57,-323.18"/>
<polygon fill="grey" stroke="grey" stroke-width="2" points="1085.08,-319.7 1074.55,-320.9 1083.52,-326.53 1085.08,-319.7"/>
</g>
<!-- 33 -->
<g id="node34" class="node">
<title>33</title>
<path fill="none" stroke="#5673d8" stroke-width="2" d="M2647.41,-180C2647.41,-180 2603.41,-180 2603.41,-180 2597.41,-180 2591.41,-174 2591.41,-168 2591.41,-168 2591.41,-156 2591.41,-156 2591.41,-150 2597.41,-144 2603.41,-144 2603.41,-144 2647.41,-144 2647.41,-144 2653.41,-144 2659.41,-150 2659.41,-156 2659.41,-156 2659.41,-168 2659.41,-168 2659.41,-174 2653.41,-180 2647.41,-180"/>
<text text-anchor="middle" x="2625.41" y="-159.5" font-family="sans" font-size="10.00">spikein_qc</text>
</g>
<!-- 7&#45;&gt;33 -->
<g id="edge70" class="edge">
<title>7&#45;&gt;33</title>
<path fill="none" stroke="grey" stroke-width="2" d="M1458.59,-375.17C1528.35,-371.26 1669.51,-359.31 1783.41,-324 1817.97,-313.29 1821.89,-298.79 1856.41,-288 1931.75,-264.46 2467.46,-205.12 2581.43,-179.69"/>
<polygon fill="grey" stroke="grey" stroke-width="2" points="2582.5,-183.04 2591.38,-177.27 2580.84,-176.24 2582.5,-183.04"/>
</g>
<!-- 35 -->
<g id="node36" class="node">
<title>35</title>
<path fill="none" stroke="#56c1d8" stroke-width="2" d="M2560.91,-180C2560.91,-180 2463.91,-180 2463.91,-180 2457.91,-180 2451.91,-174 2451.91,-168 2451.91,-168 2451.91,-156 2451.91,-156 2451.91,-150 2457.91,-144 2463.91,-144 2463.91,-144 2560.91,-144 2560.91,-144 2566.91,-144 2572.91,-150 2572.91,-156 2572.91,-156 2572.91,-168 2572.91,-168 2572.91,-174 2566.91,-180 2560.91,-180"/>
<text text-anchor="middle" x="2512.41" y="-159.5" font-family="sans" font-size="10.00">reads_in_annotations</text>
</g>
<!-- 7&#45;&gt;35 -->
<g id="edge73" class="edge">
<title>7&#45;&gt;35</title>
<path fill="none" stroke="grey" stroke-width="2" d="M1458.47,-371.92C1517.85,-364.38 1627.92,-348.41 1719.41,-324 1764.65,-311.93 1773.37,-300.78 1818.41,-288 1894.39,-266.45 1917.07,-275.67 1992.41,-252 2031.16,-239.82 2037.07,-226.1 2076.41,-216 2231.9,-176.08 2279.91,-206.38 2441.27,-180.21"/>
<polygon fill="grey" stroke="grey" stroke-width="2" points="2442.27,-183.6 2451.56,-178.5 2441.12,-176.69 2442.27,-183.6"/>
</g>
<!-- 8&#45;&gt;0 -->
<g id="edge7" class="edge">
<title>8&#45;&gt;0</title>
<path fill="none" stroke="grey" stroke-width="2" d="M645.25,-299.55C570.64,-287.55 398.96,-259.32 388.41,-252 320.82,-205.13 289.37,-132.2 345.41,-72 393.7,-20.14 905.09,-18.26 1048.95,-18.77"/>
<polygon fill="grey" stroke="grey" stroke-width="2" points="1049.04,-22.27 1059.05,-18.81 1049.06,-15.27 1049.04,-22.27"/>
</g>
<!-- 14 -->
<g id="node15" class="node">
<title>14</title>
<path fill="none" stroke="#d8cb56" stroke-width="2" d="M444.41,-180C444.41,-180 366.41,-180 366.41,-180 360.41,-180 354.41,-174 354.41,-168 354.41,-168 354.41,-156 354.41,-156 354.41,-150 360.41,-144 366.41,-144 366.41,-144 444.41,-144 444.41,-144 450.41,-144 456.41,-150 456.41,-156 456.41,-156 456.41,-168 456.41,-168 456.41,-174 450.41,-180 444.41,-180"/>
<text text-anchor="middle" x="405.41" y="-159.5" font-family="sans" font-size="10.00">consensus_peaks</text>
</g>
<!-- 8&#45;&gt;14 -->
<g id="edge48" class="edge">
<title>8&#45;&gt;14</title>
<path fill="none" stroke="grey" stroke-width="2" d="M646.36,-287.87C596.58,-262.07 502.37,-213.25 447.66,-184.9"/>
<polygon fill="grey" stroke="grey" stroke-width="2" points="449.07,-181.68 438.58,-180.19 445.85,-187.9 449.07,-181.68"/>
</g>
<!-- 8&#45;&gt;29 -->
<g id="edge64" class="edge">
<title>8&#45;&gt;29</title>
<path fill="none" stroke="grey" stroke-width="2" d="M693.01,-287.7C699.54,-279.39 707.48,-269.28 714.66,-260.14"/>
<polygon fill="grey" stroke="grey" stroke-width="2" points="717.55,-262.13 720.97,-252.1 712.04,-257.81 717.55,-262.13"/>
</g>
<!-- 34 -->
<g id="node35" class="node">
<title>34</title>
<path fill="none" stroke="#56d8c1" stroke-width="2" d="M768.41,-180C768.41,-180 700.41,-180 700.41,-180 694.41,-180 688.41,-174 688.41,-168 688.41,-168 688.41,-156 688.41,-156 688.41,-150 694.41,-144 700.41,-144 700.41,-144 768.41,-144 768.41,-144 774.41,-144 780.41,-150 780.41,-156 780.41,-156 780.41,-168 780.41,-168 780.41,-174 774.41,-180 768.41,-180"/>
<text text-anchor="middle" x="734.41" y="-159.5" font-family="sans" font-size="10.00">peak_summary</text>
</g>
<!-- 8&#45;&gt;34 -->
<g id="edge72" class="edge">
<title>8&#45;&gt;34</title>
<path fill="none" stroke="grey" stroke-width="2" d="M681.11,-287.67C683.36,-269.29 688.3,-239.69 698.41,-216 702.5,-206.43 708.4,-196.78 714.25,-188.39"/>
<polygon fill="grey" stroke="grey" stroke-width="2" points="717.19,-190.29 720.25,-180.15 711.53,-186.17 717.19,-190.29"/>
</g>
<!-- 9&#45;&gt;0 -->
<g id="edge17" class="edge">
<title>9&#45;&gt;0</title>
<path fill="none" stroke="grey" stroke-width="2" d="M1985.97,-305.26C2135.59,-305.69 2627.39,-303.08 2775.41,-252 2838.7,-230.16 2901.3,-207.6 2880.41,-144 2868.02,-106.25 2862.6,-90.47 2827.41,-72 2749.38,-31.04 1369.3,-20.73 1123.66,-19.21"/>
<polygon fill="grey" stroke="grey" stroke-width="2" points="1123.48,-15.71 1113.46,-19.15 1123.44,-22.71 1123.48,-15.71"/>
</g>
<!-- 9&#45;&gt;37 -->
<g id="edge83" class="edge">
<title>9&#45;&gt;37</title>
<path fill="none" stroke="grey" stroke-width="2" d="M1898.79,-303.24C1859.4,-299.29 1802.53,-287.32 1768.41,-252 1733.26,-215.6 1726.07,-153.79 1725.04,-118.27"/>
<polygon fill="grey" stroke="grey" stroke-width="2" points="1728.54,-118.1 1724.9,-108.16 1721.54,-118.2 1728.54,-118.1"/>
</g>
<!-- 10&#45;&gt;0 -->
<g id="edge5" class="edge">
<title>10&#45;&gt;0</title>
<path fill="none" stroke="grey" stroke-width="2" d="M2766,-229.25C2800.36,-223.62 2840.53,-210.42 2862.41,-180 2904.48,-121.52 2791.16,-75.14 2783.41,-72 2703.92,-39.78 1365.77,-22.33 1123.77,-19.43"/>
<polygon fill="grey" stroke="grey" stroke-width="2" points="1123.76,-15.93 1113.72,-19.31 1123.67,-22.93 1123.76,-15.93"/>
</g>
<!-- 11 -->
<g id="node12" class="node">
<title>11</title>
<path fill="none" stroke="#d8bc56" stroke-width="2" d="M2841.41,-180C2841.41,-180 2727.41,-180 2727.41,-180 2721.41,-180 2715.41,-174 2715.41,-168 2715.41,-168 2715.41,-156 2715.41,-156 2715.41,-150 2721.41,-144 2727.41,-144 2727.41,-144 2841.41,-144 2841.41,-144 2847.41,-144 2853.41,-150 2853.41,-156 2853.41,-156 2853.41,-168 2853.41,-168 2853.41,-174 2847.41,-180 2841.41,-180"/>
<text text-anchor="middle" x="2784.41" y="-159.5" font-family="sans" font-size="10.00">compute_spikein_factors</text>
</g>
<!-- 10&#45;&gt;11 -->
<g id="edge43" class="edge">
<title>10&#45;&gt;11</title>
<path fill="none" stroke="grey" stroke-width="2" d="M2724.19,-215.7C2734.17,-206.97 2746.42,-196.24 2757.27,-186.75"/>
<polygon fill="grey" stroke="grey" stroke-width="2" points="2759.64,-189.32 2764.87,-180.1 2755.03,-184.06 2759.64,-189.32"/>
</g>
<!-- 10&#45;&gt;33 -->
<g id="edge69" class="edge">
<title>10&#45;&gt;33</title>
<path fill="none" stroke="grey" stroke-width="2" d="M2684.89,-215.7C2675.03,-206.97 2662.93,-196.24 2652.22,-186.75"/>
<polygon fill="grey" stroke="grey" stroke-width="2" points="2654.52,-184.12 2644.72,-180.1 2649.88,-189.36 2654.52,-184.12"/>
</g>
<!-- 11&#45;&gt;0 -->
<g id="edge28" class="edge">
<title>11&#45;&gt;0</title>
<path fill="none" stroke="grey" stroke-width="2" d="M2785.12,-143.68C2784.92,-122.95 2781.02,-88.92 2759.41,-72 2692.87,-19.89 1365.28,-18.72 1123.89,-18.94"/>
<polygon fill="grey" stroke="grey" stroke-width="2" points="1123.54,-15.44 1113.54,-18.95 1123.55,-22.44 1123.54,-15.44"/>
</g>
<!-- 11&#45;&gt;13 -->
<g id="edge45" class="edge">
<title>11&#45;&gt;13</title>
<path fill="none" stroke="grey" stroke-width="2" d="M2760.44,-143.7C2748.1,-134.8 2732.9,-123.82 2719.56,-114.2"/>
<polygon fill="grey" stroke="grey" stroke-width="2" points="2721.27,-111.12 2711.11,-108.1 2717.18,-116.79 2721.27,-111.12"/>
</g>
<!-- 11&#45;&gt;37 -->
<g id="edge90" class="edge">
<title>11&#45;&gt;37</title>
<path fill="none" stroke="grey" stroke-width="2" d="M2715.23,-149.83C2699.85,-147.63 2683.6,-145.54 2668.41,-144 2320.56,-108.81 1897.97,-95.47 1766.46,-92"/>
<polygon fill="grey" stroke="grey" stroke-width="2" points="1766.51,-88.5 1756.42,-91.74 1766.33,-95.49 1766.51,-88.5"/>
</g>
<!-- 12&#45;&gt;0 -->
<g id="edge18" class="edge">
<title>12&#45;&gt;0</title>
<path fill="none" stroke="grey" stroke-width="2" d="M1098.32,-287.94C1056.94,-268.62 996.22,-232.79 969.41,-180 962.17,-165.73 964.29,-159.16 969.41,-144 975.86,-124.93 1010.57,-86.62 1024.41,-72 1034.19,-61.67 1045.83,-51.29 1056.38,-42.49"/>
<polygon fill="grey" stroke="grey" stroke-width="2" points="1058.66,-45.14 1064.18,-36.1 1054.22,-39.73 1058.66,-45.14"/>
</g>
<!-- 27 -->
<g id="node28" class="node">
<title>27</title>
<path fill="none" stroke="#56d863" stroke-width="2" d="M1170.41,-252C1170.41,-252 1110.41,-252 1110.41,-252 1104.41,-252 1098.41,-246 1098.41,-240 1098.41,-240 1098.41,-228 1098.41,-228 1098.41,-222 1104.41,-216 1110.41,-216 1110.41,-216 1170.41,-216 1170.41,-216 1176.41,-216 1182.41,-222 1182.41,-228 1182.41,-228 1182.41,-240 1182.41,-240 1182.41,-246 1176.41,-252 1170.41,-252"/>
<text text-anchor="middle" x="1140.41" y="-231.5" font-family="sans" font-size="10.00">deeptools_tss</text>
</g>
<!-- 12&#45;&gt;27 -->
<g id="edge62" class="edge">
<title>12&#45;&gt;27</title>
<path fill="none" stroke="grey" stroke-width="2" d="M1140.41,-287.7C1140.41,-279.98 1140.41,-270.71 1140.41,-262.11"/>
<polygon fill="grey" stroke="grey" stroke-width="2" points="1143.91,-262.1 1140.41,-252.1 1136.91,-262.1 1143.91,-262.1"/>
</g>
<!-- 13&#45;&gt;0 -->
<g id="edge26" class="edge">
<title>13&#45;&gt;0</title>
<path fill="none" stroke="grey" stroke-width="2" d="M2624.88,-79.54C2603.81,-76.68 2580.14,-73.82 2558.41,-72 1988.64,-24.31 1291.26,-19.49 1123.82,-19.04"/>
<polygon fill="grey" stroke="grey" stroke-width="2" points="1123.57,-15.54 1113.56,-19.02 1123.56,-22.54 1123.57,-15.54"/>
</g>
<!-- 14&#45;&gt;0 -->
<g id="edge8" class="edge">
<title>14&#45;&gt;0</title>
<path fill="none" stroke="grey" stroke-width="2" d="M448.04,-143.99C469.77,-134.58 496.23,-121.97 518.41,-108 539.79,-94.53 539.07,-81.68 562.41,-72 650.8,-35.33 944.95,-23.19 1049.3,-19.99"/>
<polygon fill="grey" stroke="grey" stroke-width="2" points="1049.48,-23.48 1059.37,-19.69 1049.27,-16.49 1049.48,-23.48"/>
</g>
<!-- 14&#45;&gt;17 -->
<g id="edge51" class="edge">
<title>14&#45;&gt;17</title>
<path fill="none" stroke="grey" stroke-width="2" d="M412.09,-143.7C415.13,-135.81 418.8,-126.3 422.17,-117.55"/>
<polygon fill="grey" stroke="grey" stroke-width="2" points="425.48,-118.69 425.82,-108.1 418.95,-116.17 425.48,-118.69"/>
</g>
<!-- 14&#45;&gt;37 -->
<g id="edge80" class="edge">
<title>14&#45;&gt;37</title>
<path fill="none" stroke="grey" stroke-width="2" d="M456.61,-150.84C471.63,-148.21 488.13,-145.65 503.41,-144 739.9,-118.47 1498.3,-97.03 1684.05,-92.08"/>
<polygon fill="grey" stroke="grey" stroke-width="2" points="1684.31,-95.57 1694.22,-91.81 1684.13,-88.58 1684.31,-95.57"/>
</g>
<!-- 15 -->
<g id="node16" class="node">
<title>15</title>
<path fill="none" stroke="#569ad8" stroke-width="2" d="M480.91,-252C480.91,-252 409.91,-252 409.91,-252 403.91,-252 397.91,-246 397.91,-240 397.91,-240 397.91,-228 397.91,-228 397.91,-222 403.91,-216 409.91,-216 409.91,-216 480.91,-216 480.91,-216 486.91,-216 492.91,-222 492.91,-228 492.91,-228 492.91,-240 492.91,-240 492.91,-246 486.91,-252 480.91,-252"/>
<text text-anchor="middle" x="445.41" y="-231.5" font-family="sans" font-size="10.00">reproducible_idr</text>
</g>
<!-- 15&#45;&gt;14 -->
<g id="edge47" class="edge">
<title>15&#45;&gt;14</title>
<path fill="none" stroke="grey" stroke-width="2" d="M435.53,-215.7C430.92,-207.64 425.35,-197.89 420.26,-188.98"/>
<polygon fill="grey" stroke="grey" stroke-width="2" points="423.19,-187.05 415.19,-180.1 417.11,-190.52 423.19,-187.05"/>
</g>
<!-- 16&#45;&gt;15 -->
<g id="edge49" class="edge">
<title>16&#45;&gt;15</title>
<path fill="none" stroke="grey" stroke-width="2" d="M497.36,-287.7C488.92,-279.14 478.59,-268.66 469.37,-259.3"/>
<polygon fill="grey" stroke="grey" stroke-width="2" points="471.79,-256.77 462.27,-252.1 466.8,-261.68 471.79,-256.77"/>
</g>
<!-- 17&#45;&gt;0 -->
<g id="edge14" class="edge">
<title>17&#45;&gt;0</title>
<path fill="none" stroke="grey" stroke-width="2" d="M510.13,-74.14C514.96,-73.37 519.75,-72.65 524.41,-72 721.42,-44.56 959.3,-27.32 1049.41,-21.35"/>
<polygon fill="grey" stroke="grey" stroke-width="2" points="1049.66,-24.84 1059.41,-20.69 1049.2,-17.86 1049.66,-24.84"/>
</g>
<!-- 18&#45;&gt;0 -->
<g id="edge11" class="edge">
<title>18&#45;&gt;0</title>
<path fill="none" stroke="grey" stroke-width="2" d="M909.36,-71.97C952.88,-58.94 1011.63,-41.37 1049.27,-30.11"/>
<polygon fill="grey" stroke="grey" stroke-width="2" points="1050.72,-33.33 1059.3,-27.11 1048.72,-26.62 1050.72,-33.33"/>
</g>
<!-- 19&#45;&gt;0 -->
<g id="edge15" class="edge">
<title>19&#45;&gt;0</title>
<path fill="none" stroke="grey" stroke-width="2" d="M1375.73,-143.87C1311.49,-116.14 1185.63,-61.82 1123.26,-34.9"/>
<polygon fill="grey" stroke="grey" stroke-width="2" points="1124.38,-31.58 1113.81,-30.83 1121.61,-38 1124.38,-31.58"/>
</g>
<!-- 19&#45;&gt;37 -->
<g id="edge82" class="edge">
<title>19&#45;&gt;37</title>
<path fill="none" stroke="grey" stroke-width="2" d="M1482.68,-145.81C1544.11,-131.94 1632.97,-111.87 1684.4,-100.26"/>
<polygon fill="grey" stroke="grey" stroke-width="2" points="1685.18,-103.67 1694.16,-98.06 1683.64,-96.85 1685.18,-103.67"/>
</g>
<!-- 20&#45;&gt;0 -->
<g id="edge2" class="edge">
<title>20&#45;&gt;0</title>
<path fill="none" stroke="grey" stroke-width="2" d="M1545.71,-143.94C1435.88,-114.06 1211.98,-53.16 1123.54,-29.1"/>
<polygon fill="grey" stroke="grey" stroke-width="2" points="1124.26,-25.67 1113.69,-26.42 1122.42,-32.42 1124.26,-25.67"/>
</g>
<!-- 20&#45;&gt;37 -->
<g id="edge77" class="edge">
<title>20&#45;&gt;37</title>
<path fill="none" stroke="grey" stroke-width="2" d="M1637.03,-143.88C1652.33,-134.72 1671.36,-123.34 1687.83,-113.48"/>
<polygon fill="grey" stroke="grey" stroke-width="2" points="1689.9,-116.33 1696.68,-108.19 1686.3,-110.32 1689.9,-116.33"/>
</g>
<!-- 21&#45;&gt;0 -->
<g id="edge10" class="edge">
<title>21&#45;&gt;0</title>
<path fill="none" stroke="grey" stroke-width="2" d="M1948.17,-218.43C1952.98,-217.56 1957.76,-216.74 1962.41,-216 2105.1,-193.33 2368.73,-257.56 2279.41,-144 2206.09,-50.77 1318.48,-24.48 1123.94,-19.82"/>
<polygon fill="grey" stroke="grey" stroke-width="2" points="1123.74,-16.32 1113.66,-19.58 1123.57,-23.31 1123.74,-16.32"/>
</g>
<!-- 22 -->
<g id="node23" class="node">
<title>22</title>
<path fill="none" stroke="#80d856" stroke-width="2" d="M1979.91,-180C1979.91,-180 1860.91,-180 1860.91,-180 1854.91,-180 1848.91,-174 1848.91,-168 1848.91,-168 1848.91,-156 1848.91,-156 1848.91,-150 1854.91,-144 1860.91,-144 1860.91,-144 1979.91,-144 1979.91,-144 1985.91,-144 1991.91,-150 1991.91,-156 1991.91,-156 1991.91,-168 1991.91,-168 1991.91,-174 1985.91,-180 1979.91,-180"/>
<text text-anchor="middle" x="1920.41" y="-159.5" font-family="sans" font-size="10.00">deeptools_cor_scatterplot</text>
</g>
<!-- 21&#45;&gt;22 -->
<g id="edge57" class="edge">
<title>21&#45;&gt;22</title>
<path fill="none" stroke="grey" stroke-width="2" d="M1889.55,-215.7C1894.26,-207.64 1899.97,-197.89 1905.19,-188.98"/>
<polygon fill="grey" stroke="grey" stroke-width="2" points="1908.36,-190.5 1910.39,-180.1 1902.32,-186.96 1908.36,-190.5"/>
</g>
<!-- 23 -->
<g id="node24" class="node">
<title>23</title>
<path fill="none" stroke="#a7d856" stroke-width="2" d="M2132.41,-180C2132.41,-180 2022.41,-180 2022.41,-180 2016.41,-180 2010.41,-174 2010.41,-168 2010.41,-168 2010.41,-156 2010.41,-156 2010.41,-150 2016.41,-144 2022.41,-144 2022.41,-144 2132.41,-144 2132.41,-144 2138.41,-144 2144.41,-150 2144.41,-156 2144.41,-156 2144.41,-168 2144.41,-168 2144.41,-174 2138.41,-180 2132.41,-180"/>
<text text-anchor="middle" x="2077.41" y="-159.5" font-family="sans" font-size="10.00">deeptools_cor_heatmap</text>
</g>
<!-- 21&#45;&gt;23 -->
<g id="edge58" class="edge">
<title>21&#45;&gt;23</title>
<path fill="none" stroke="grey" stroke-width="2" d="M1927.6,-215.97C1955.26,-206.19 1990.19,-193.84 2019.36,-183.52"/>
<polygon fill="grey" stroke="grey" stroke-width="2" points="2020.75,-186.74 2029.01,-180.11 2018.42,-180.14 2020.75,-186.74"/>
</g>
<!-- 24 -->
<g id="node25" class="node">
<title>24</title>
<path fill="none" stroke="#88d856" stroke-width="2" d="M2257.91,-180C2257.91,-180 2174.91,-180 2174.91,-180 2168.91,-180 2162.91,-174 2162.91,-168 2162.91,-168 2162.91,-156 2162.91,-156 2162.91,-150 2168.91,-144 2174.91,-144 2174.91,-144 2257.91,-144 2257.91,-144 2263.91,-144 2269.91,-150 2269.91,-156 2269.91,-156 2269.91,-168 2269.91,-168 2269.91,-174 2263.91,-180 2257.91,-180"/>
<text text-anchor="middle" x="2216.41" y="-159.5" font-family="sans" font-size="10.00">deeptools_cor_pca</text>
</g>
<!-- 21&#45;&gt;24 -->
<g id="edge59" class="edge">
<title>21&#45;&gt;24</title>
<path fill="none" stroke="grey" stroke-width="2" d="M1948.24,-218.82C1953.03,-217.85 1957.79,-216.91 1962.41,-216 2044.11,-199.94 2067.53,-199.29 2152.99,-180"/>
<polygon fill="grey" stroke="grey" stroke-width="2" points="2153.89,-183.38 2162.87,-177.75 2152.34,-176.56 2153.89,-183.38"/>
</g>
<!-- 22&#45;&gt;0 -->
<g id="edge1" class="edge">
<title>22&#45;&gt;0</title>
<path fill="none" stroke="grey" stroke-width="2" d="M1898.27,-144C1869.46,-122.92 1816.7,-87.84 1765.41,-72 1643.97,-34.49 1247.65,-22.6 1123.77,-19.76"/>
<polygon fill="grey" stroke="grey" stroke-width="2" points="1123.72,-16.26 1113.64,-19.53 1123.56,-23.25 1123.72,-16.26"/>
</g>
<!-- 22&#45;&gt;37 -->
<g id="edge75" class="edge">
<title>22&#45;&gt;37</title>
<path fill="none" stroke="grey" stroke-width="2" d="M1872.71,-143.88C1840.05,-132.15 1797.2,-116.77 1766.15,-105.62"/>
<polygon fill="grey" stroke="grey" stroke-width="2" points="1767.1,-102.25 1756.5,-102.16 1764.73,-108.83 1767.1,-102.25"/>
</g>
<!-- 23&#45;&gt;0 -->
<g id="edge20" class="edge">
<title>23&#45;&gt;0</title>
<path fill="none" stroke="grey" stroke-width="2" d="M2037.78,-143.84C1987.55,-122.93 1897.82,-88.39 1817.41,-72 1555.88,-18.69 1232.15,-17.16 1123.74,-18.34"/>
<polygon fill="grey" stroke="grey" stroke-width="2" points="1123.59,-14.85 1113.64,-18.47 1123.68,-21.85 1123.59,-14.85"/>
</g>
<!-- 23&#45;&gt;37 -->
<g id="edge85" class="edge">
<title>23&#45;&gt;37</title>
<path fill="none" stroke="grey" stroke-width="2" d="M2010.3,-145.87C2007.3,-145.23 2004.33,-144.61 2001.41,-144 1918.16,-126.7 1820.36,-108.39 1766.39,-98.47"/>
<polygon fill="grey" stroke="grey" stroke-width="2" points="1766.99,-95.02 1756.52,-96.65 1765.72,-101.9 1766.99,-95.02"/>
</g>
<!-- 24&#45;&gt;0 -->
<g id="edge19" class="edge">
<title>24&#45;&gt;0</title>
<path fill="none" stroke="grey" stroke-width="2" d="M2166.77,-143.92C2103.96,-123.1 1992.06,-88.65 1893.41,-72 1599.73,-22.43 1238.65,-18.62 1123.52,-18.77"/>
<polygon fill="grey" stroke="grey" stroke-width="2" points="1123.45,-15.27 1113.46,-18.79 1123.47,-22.27 1123.45,-15.27"/>
</g>
<!-- 24&#45;&gt;37 -->
<g id="edge84" class="edge">
<title>24&#45;&gt;37</title>
<path fill="none" stroke="grey" stroke-width="2" d="M2162.57,-145.94C2159.48,-145.24 2156.41,-144.59 2153.41,-144 2012.88,-116.48 1843.45,-100.5 1766.73,-94.17"/>
<polygon fill="grey" stroke="grey" stroke-width="2" points="1766.78,-90.67 1756.53,-93.35 1766.22,-97.64 1766.78,-90.67"/>
</g>
<!-- 25&#45;&gt;0 -->
<g id="edge6" class="edge">
<title>25&#45;&gt;0</title>
<path fill="none" stroke="grey" stroke-width="2" d="M2373.01,-143.91C2362.81,-122.73 2342.24,-87.56 2312.41,-72 2204.83,-15.88 1317.8,-17.67 1123.8,-18.75"/>
<polygon fill="grey" stroke="grey" stroke-width="2" points="1123.53,-15.25 1113.55,-18.81 1123.57,-22.25 1123.53,-15.25"/>
</g>
<!-- 25&#45;&gt;37 -->
<g id="edge79" class="edge">
<title>25&#45;&gt;37</title>
<path fill="none" stroke="grey" stroke-width="2" d="M2326.79,-151.24C2311.52,-148.66 2294.84,-146.03 2279.41,-144 2088.25,-118.8 1858.48,-100.68 1766.45,-93.92"/>
<polygon fill="grey" stroke="grey" stroke-width="2" points="1766.66,-90.42 1756.43,-93.19 1766.15,-97.41 1766.66,-90.42"/>
</g>
<!-- 26 -->
<g id="node27" class="node">
<title>26</title>
<path fill="none" stroke="#56d873" stroke-width="2" d="M1318.41,-180C1318.41,-180 1142.41,-180 1142.41,-180 1136.41,-180 1130.41,-174 1130.41,-168 1130.41,-168 1130.41,-156 1130.41,-156 1130.41,-150 1136.41,-144 1142.41,-144 1142.41,-144 1318.41,-144 1318.41,-144 1324.41,-144 1330.41,-150 1330.41,-156 1330.41,-156 1330.41,-168 1330.41,-168 1330.41,-174 1324.41,-180 1318.41,-180"/>
<text text-anchor="middle" x="1230.41" y="-159.5" font-family="sans" font-size="10.00">deeptools_tss_heatmap_downsample</text>
</g>
<!-- 26&#45;&gt;0 -->
<g id="edge30" class="edge">
<title>26&#45;&gt;0</title>
<path fill="none" stroke="grey" stroke-width="2" d="M1213.04,-143.87C1187.64,-118.82 1140.21,-72.05 1111.16,-43.41"/>
<polygon fill="grey" stroke="grey" stroke-width="2" points="1113.42,-40.72 1103.84,-36.19 1108.51,-45.7 1113.42,-40.72"/>
</g>
<!-- 26&#45;&gt;37 -->
<g id="edge92" class="edge">
<title>26&#45;&gt;37</title>
<path fill="none" stroke="grey" stroke-width="2" d="M1330.49,-145.32C1333.49,-144.87 1336.48,-144.43 1339.41,-144 1464.82,-125.61 1613.45,-105.75 1684.11,-96.42"/>
<polygon fill="grey" stroke="grey" stroke-width="2" points="1684.91,-99.84 1694.36,-95.07 1683.99,-92.9 1684.91,-99.84"/>
</g>
<!-- 27&#45;&gt;0 -->
<g id="edge29" class="edge">
<title>27&#45;&gt;0</title>
<path fill="none" stroke="grey" stroke-width="2" d="M1098.22,-232.08C1060.22,-228.74 1006.32,-217.19 979.41,-180 970.03,-167.04 972.48,-158.42 979.41,-144 990.51,-120.92 1006.91,-126.7 1024.41,-108 1042.66,-88.5 1059.71,-63.3 1071.3,-44.69"/>
<polygon fill="grey" stroke="grey" stroke-width="2" points="1074.3,-46.5 1076.53,-36.14 1068.32,-42.85 1074.3,-46.5"/>
</g>
<!-- 27&#45;&gt;26 -->
<g id="edge61" class="edge">
<title>27&#45;&gt;26</title>
<path fill="none" stroke="grey" stroke-width="2" d="M1162.66,-215.7C1174,-206.88 1187.94,-196.03 1200.23,-186.47"/>
<polygon fill="grey" stroke="grey" stroke-width="2" points="1202.68,-189.01 1208.42,-180.1 1198.38,-183.48 1202.68,-189.01"/>
</g>
<!-- 28 -->
<g id="node29" class="node">
<title>28</title>
<path fill="none" stroke="#5663d8" stroke-width="2" d="M1099.91,-180C1099.91,-180 1000.91,-180 1000.91,-180 994.91,-180 988.91,-174 988.91,-168 988.91,-168 988.91,-156 988.91,-156 988.91,-150 994.91,-144 1000.91,-144 1000.91,-144 1099.91,-144 1099.91,-144 1105.91,-144 1111.91,-150 1111.91,-156 1111.91,-156 1111.91,-168 1111.91,-168 1111.91,-174 1105.91,-180 1099.91,-180"/>
<text text-anchor="middle" x="1050.41" y="-159.5" font-family="sans" font-size="10.00">tss_enrichment_score</text>
</g>
<!-- 27&#45;&gt;28 -->
<g id="edge63" class="edge">
<title>27&#45;&gt;28</title>
<path fill="none" stroke="grey" stroke-width="2" d="M1118.17,-215.7C1106.83,-206.88 1092.88,-196.03 1080.59,-186.47"/>
<polygon fill="grey" stroke="grey" stroke-width="2" points="1082.45,-183.48 1072.4,-180.1 1078.15,-189.01 1082.45,-183.48"/>
</g>
<!-- 27&#45;&gt;37 -->
<g id="edge91" class="edge">
<title>27&#45;&gt;37</title>
<path fill="none" stroke="grey" stroke-width="2" d="M1182.44,-229.82C1263.37,-223.18 1437.62,-206.26 1491.41,-180 1512.32,-169.79 1509.12,-155.38 1529.41,-144 1578.58,-116.42 1642.82,-102.61 1684.11,-96.14"/>
<polygon fill="grey" stroke="grey" stroke-width="2" points="1684.71,-99.58 1694.08,-94.64 1683.68,-92.66 1684.71,-99.58"/>
</g>
<!-- 28&#45;&gt;0 -->
<g id="edge21" class="edge">
<title>28&#45;&gt;0</title>
<path fill="none" stroke="grey" stroke-width="2" d="M1054.76,-143.87C1060.92,-119.56 1072.26,-74.82 1079.56,-46.01"/>
<polygon fill="grey" stroke="grey" stroke-width="2" points="1082.99,-46.74 1082.06,-36.19 1076.21,-45.02 1082.99,-46.74"/>
</g>
<!-- 28&#45;&gt;37 -->
<g id="edge86" class="edge">
<title>28&#45;&gt;37</title>
<path fill="none" stroke="grey" stroke-width="2" d="M1112.26,-145.62C1115.35,-145.03 1118.41,-144.49 1121.41,-144 1331.18,-109.88 1585.75,-96.61 1683.99,-92.53"/>
<polygon fill="grey" stroke="grey" stroke-width="2" points="1684.24,-96.02 1694.09,-92.12 1683.96,-89.03 1684.24,-96.02"/>
</g>
<!-- 29&#45;&gt;0 -->
<g id="edge22" class="edge">
<title>29&#45;&gt;0</title>
<path fill="none" stroke="grey" stroke-width="2" d="M707.25,-232.71C636.53,-230.91 455.41,-219.03 503.41,-144 523.99,-111.84 622.7,-82.48 659.41,-72 799.43,-32.05 973.77,-22.21 1048.99,-19.79"/>
<polygon fill="grey" stroke="grey" stroke-width="2" points="1049.47,-23.28 1059.36,-19.48 1049.26,-16.28 1049.47,-23.28"/>
</g>
<!-- 29&#45;&gt;34 -->
<g id="edge71" class="edge">
<title>29&#45;&gt;34</title>
<path fill="none" stroke="grey" stroke-width="2" d="M734.41,-215.7C734.41,-207.98 734.41,-198.71 734.41,-190.11"/>
<polygon fill="grey" stroke="grey" stroke-width="2" points="737.91,-190.1 734.41,-180.1 730.91,-190.1 737.91,-190.1"/>
</g>
<!-- 30 -->
<g id="node31" class="node">
<title>30</title>
<path fill="none" stroke="#56d8a2" stroke-width="2" d="M970.41,-108C970.41,-108 940.41,-108 940.41,-108 934.41,-108 928.41,-102 928.41,-96 928.41,-96 928.41,-84 928.41,-84 928.41,-78 934.41,-72 940.41,-72 940.41,-72 970.41,-72 970.41,-72 976.41,-72 982.41,-78 982.41,-84 982.41,-84 982.41,-96 982.41,-96 982.41,-102 976.41,-108 970.41,-108"/>
<text text-anchor="middle" x="955.41" y="-87.5" font-family="sans" font-size="10.00">idr</text>
</g>
<!-- 30&#45;&gt;0 -->
<g id="edge13" class="edge">
<title>30&#45;&gt;0</title>
<path fill="none" stroke="grey" stroke-width="2" d="M982.56,-74.5C1002.23,-63.98 1029.03,-49.66 1050.48,-38.2"/>
<polygon fill="grey" stroke="grey" stroke-width="2" points="1052.13,-41.29 1059.3,-33.49 1048.84,-35.11 1052.13,-41.29"/>
</g>
<!-- 31&#45;&gt;30 -->
<g id="edge66" class="edge">
<title>31&#45;&gt;30</title>
<path fill="none" stroke="grey" stroke-width="2" d="M970.23,-294.13C947.14,-286.45 922.15,-273.53 908.41,-252 882.6,-211.53 891.38,-188.88 908.41,-144 912.38,-133.54 919.46,-123.83 926.94,-115.65"/>
<polygon fill="grey" stroke="grey" stroke-width="2" points="929.64,-117.89 934.15,-108.3 924.65,-112.99 929.64,-117.89"/>
</g>
<!-- 32&#45;&gt;0 -->
<g id="edge24" class="edge">
<title>32&#45;&gt;0</title>
<path fill="none" stroke="grey" stroke-width="2" d="M612.21,-143.78C638.31,-123.15 685.27,-89.22 731.41,-72 841.74,-30.82 982.63,-21.56 1048.84,-19.53"/>
<polygon fill="grey" stroke="grey" stroke-width="2" points="1049.29,-23.02 1059.19,-19.25 1049.1,-16.02 1049.29,-23.02"/>
</g>
<!-- 32&#45;&gt;37 -->
<g id="edge88" class="edge">
<title>32&#45;&gt;37</title>
<path fill="none" stroke="grey" stroke-width="2" d="M670.48,-145.18C673.49,-144.75 676.48,-144.36 679.41,-144 1067.76,-96.89 1542.15,-91.53 1683.67,-91.02"/>
<polygon fill="grey" stroke="grey" stroke-width="2" points="1684.05,-94.52 1694.04,-90.99 1684.03,-87.52 1684.05,-94.52"/>
</g>
<!-- 33&#45;&gt;0 -->
<g id="edge3" class="edge">
<title>33&#45;&gt;0</title>
<path fill="none" stroke="grey" stroke-width="2" d="M2592.28,-143.92C2549.01,-122.59 2470.29,-87.07 2398.41,-72 2145.35,-18.94 1310.59,-18.3 1123.74,-18.84"/>
<polygon fill="grey" stroke="grey" stroke-width="2" points="1123.59,-15.34 1113.6,-18.87 1123.61,-22.34 1123.59,-15.34"/>
</g>
<!-- 33&#45;&gt;37 -->
<g id="edge76" class="edge">
<title>33&#45;&gt;37</title>
<path fill="none" stroke="grey" stroke-width="2" d="M2590.97,-146.31C2588.11,-145.42 2585.23,-144.63 2582.41,-144 2424.16,-108.76 1916.07,-95.14 1766.94,-91.84"/>
<polygon fill="grey" stroke="grey" stroke-width="2" points="1766.9,-88.34 1756.83,-91.62 1766.75,-95.34 1766.9,-88.34"/>
</g>
<!-- 34&#45;&gt;0 -->
<g id="edge4" class="edge">
<title>34&#45;&gt;0</title>
<path fill="none" stroke="grey" stroke-width="2" d="M732.59,-143.9C731.48,-123.71 733.07,-90.55 752.41,-72 794.31,-31.84 970.69,-22.1 1048.86,-19.75"/>
<polygon fill="grey" stroke="grey" stroke-width="2" points="1049.31,-23.23 1059.21,-19.46 1049.12,-16.24 1049.31,-23.23"/>
</g>
<!-- 34&#45;&gt;37 -->
<g id="edge78" class="edge">
<title>34&#45;&gt;37</title>
<path fill="none" stroke="grey" stroke-width="2" d="M780.55,-157.74C948.26,-145.89 1524.02,-105.23 1683.93,-93.93"/>
<polygon fill="grey" stroke="grey" stroke-width="2" points="1684.55,-97.4 1694.28,-93.2 1684.06,-90.41 1684.55,-97.4"/>
</g>
<!-- 35&#45;&gt;0 -->
<g id="edge27" class="edge">
<title>35&#45;&gt;0</title>
<path fill="none" stroke="grey" stroke-width="2" d="M2488.54,-143.89C2457.2,-122.53 2399.69,-86.98 2344.41,-72 2224.06,-39.38 1318.84,-22.8 1123.5,-19.59"/>
<polygon fill="grey" stroke="grey" stroke-width="2" points="1123.5,-16.09 1113.45,-19.42 1123.39,-23.09 1123.5,-16.09"/>
</g>
<!-- 35&#45;&gt;37 -->
<g id="edge89" class="edge">
<title>35&#45;&gt;37</title>
<path fill="none" stroke="grey" stroke-width="2" d="M2451.57,-145.42C2448.82,-144.9 2446.09,-144.43 2443.41,-144 2188.1,-103.42 1876.67,-93.82 1766.45,-91.62"/>
<polygon fill="grey" stroke="grey" stroke-width="2" points="1766.48,-88.12 1756.42,-91.43 1766.35,-95.12 1766.48,-88.12"/>
</g>
<!-- 36&#45;&gt;0 -->
<g id="edge16" class="edge">
<title>36&#45;&gt;0</title>
<path fill="none" stroke="grey" stroke-width="2" d="M107.95,-75.02C112.79,-73.85 117.68,-72.8 122.41,-72 305.59,-40.98 894.38,-23.94 1048.96,-19.93"/>
<polygon fill="grey" stroke="grey" stroke-width="2" points="1049.42,-23.42 1059.32,-19.66 1049.24,-16.42 1049.42,-23.42"/>
</g>
<!-- 37&#45;&gt;0 -->
<g id="edge31" class="edge">
<title>37&#45;&gt;0</title>
<path fill="none" stroke="grey" stroke-width="2" d="M1694.16,-85.58C1587.61,-73.9 1238.84,-35.7 1123.69,-23.08"/>
<polygon fill="grey" stroke="grey" stroke-width="2" points="1123.92,-19.59 1113.6,-21.98 1123.16,-26.55 1123.92,-19.59"/>
</g>
</g>
</svg>
